<?xml version="1.0" encoding="iso-8859-1"?>
<!-- Generator: Adobe Illustrator 19.0.0, SVG Export Plug-In . SVG Version: 6.00 Build 0)  -->
<svg version="1.1" id="Capa_1" xmlns="http://www.w3.org/2000/svg" xmlns:xlink="http://www.w3.org/1999/xlink" x="0px" y="0px"
	 viewBox="0 0 512.002 512.002" style="enable-background:new 0 0 512.002 512.002;" xml:space="preserve">
<circle style="fill:#FFD93B;" cx="256.001" cy="256" r="256"/>
<path style="fill:#F4C534;" d="M512.001,256c0,141.44-114.64,256-256,256c-80.48,0-152.32-37.12-199.28-95.28
	c43.92,35.52,99.84,56.72,160.72,56.72c141.36,0,256-114.56,256-256c0-60.88-21.2-116.8-56.72-160.72
	C474.801,103.68,512.001,175.52,512.001,256z"/>
<path style="fill:#FFFFFF;" d="M326.673,390.96c0,0,9.696-52.352-13.84-53.344c-12.384-0.528-21.088,29.184-28.592,70.272
	c-8.576,46.992,15.056,73.552,35.648,88.608c30.176,22.064,62,18.08,92.32,3.616c37.6-17.936,68.736-87.2,69.216-104.208
	c0.72-26.32-20.576-26.832-49.408,35.104c0,0-3.792,11.68,0,0s33.152-64.224,39.2-76.528c6.32-12.88-11.488-29.872-23.808-13.648
	s-48.208,67.056-50.88,79.504c0,0-2.4,9.648,0,0c2.4-9.632,52.048-89.056,54.336-102.544c2.72-16.112-19.904-20.176-27.536-8.72
	c-5.568,8.352-58.176,95.6-58.176,95.6l0,0c0,0,43.248-72,41.088-86.016c-1.792-11.616-16.64-13.792-23.728-6.432
	C374.641,320.368,326.673,390.96,326.673,390.96z"/>
<path style="fill:#DEE4E9;" d="M290.801,463.504c7.408,14.72,18.624,25.344,29.072,32.992c30.176,22.064,62,18.08,92.32,3.616
	c37.6-17.936,68.752-87.2,69.216-104.224C481.409,395.888,416.241,557.2,290.801,463.504z"/>
<path style="fill:#FFFFFF;" d="M185.329,390.96c0,0-9.696-52.352,13.84-53.344c12.384-0.528,21.088,29.184,28.592,70.272
	c8.576,46.992-15.056,73.552-35.648,88.608c-30.176,22.064-62,18.08-92.32,3.616c-37.6-17.936-68.736-87.2-69.216-104.208
	c-0.72-26.32,20.576-26.832,49.408,35.104c0,0,3.792,11.68,0,0s-33.152-64.224-39.2-76.528
	c-6.336-12.88,11.472-29.872,23.808-13.648s48.208,67.056,50.88,79.504c0,0,2.4,9.648,0,0c-2.4-9.632-52.048-89.056-54.336-102.544
	c-2.72-16.112,19.904-20.176,27.536-8.72c5.568,8.352,58.176,95.6,58.176,95.6l0,0c0,0-43.248-72-41.088-86.016
	c1.792-11.616,16.64-13.792,23.728-6.432C137.361,320.368,185.329,390.96,185.329,390.96z"/>
<path style="fill:#DEE4E9;" d="M221.185,463.504c-7.408,14.72-18.624,25.344-29.072,32.992c-30.176,22.064-62,18.08-92.32,3.616
	c-37.6-17.936-68.736-87.2-69.216-104.224C30.593,395.888,95.761,557.2,221.185,463.504z"/>
<g>
	<path style="fill:#3E4347;" d="M351.409,225.664c11.488,2.576-9.664,86.512-95.408,86.576c-85.76-0.064-106.912-84-95.408-86.576
		c8.4-4.496,40.752,35.84,95.408,35.84C311.697,261.504,343.009,221.168,351.409,225.664z"/>
	<path style="fill:#3E4347;" d="M214.273,186.272c-6.128,0-11.36-4.672-11.936-10.896c-1.84-19.984-17.072-35.056-35.424-35.056
		s-33.584,15.072-35.424,35.056c-0.608,6.592-6.496,11.504-13.04,10.848c-6.608-0.608-11.456-6.448-10.848-13.04
		c2.992-32.416,28.48-56.864,59.328-56.864c30.832,0,56.336,24.448,59.312,56.864c0.608,6.592-4.256,12.448-10.848,13.04
		C215.009,186.256,214.641,186.272,214.273,186.272z"/>
	<path style="fill:#3E4347;" d="M392.449,186.272c-6.128,0-11.36-4.672-11.936-10.896c-1.84-19.984-17.072-35.056-35.424-35.056
		c-18.352,0-33.584,15.072-35.424,35.056c-0.592,6.592-6.432,11.504-13.04,10.848c-6.608-0.608-11.456-6.448-10.848-13.04
		c2.976-32.416,28.48-56.864,59.312-56.864s56.336,24.448,59.312,56.864c0.608,6.592-4.256,12.448-10.848,13.04
		C393.185,186.256,392.817,186.272,392.449,186.272z"/>
</g>
<g>
</g>
<g>
</g>
<g>
</g>
<g>
</g>
<g>
</g>
<g>
</g>
<g>
</g>
<g>
</g>
<g>
</g>
<g>
</g>
<g>
</g>
<g>
</g>
<g>
</g>
<g>
</g>
<g>
</g>
</svg>
