<?xml version="1.0" encoding="iso-8859-1"?>
<!-- Generator: Adobe Illustrator 19.0.0, SVG Export Plug-In . SVG Version: 6.00 Build 0)  -->
<svg version="1.1" id="Capa_1" xmlns="http://www.w3.org/2000/svg" xmlns:xlink="http://www.w3.org/1999/xlink" x="0px" y="0px"
	 viewBox="0 0 512.032 512.032" style="enable-background:new 0 0 512.032 512.032;" xml:space="preserve">
<path style="fill:#FFD93B;" d="M427.465,310.352c-10.816,10.448-15.776,25.696-13.12,40.576l16.656,97.296
	c6.384,37.216-32.784,65.744-66.448,48.208l-87.36-46.08c-13.296-6.912-29.248-6.912-42.528,0l-87.36,46.08
	c-33.488,17.536-72.832-10.992-66.272-48.208l16.656-97.296c2.48-14.88-2.48-30.128-13.12-40.576l-70.704-68.928
	c-27.12-26.4-12.224-72.48,25.344-77.968l97.648-14.176c14.88-2.128,27.824-11.52,34.384-24.992l43.776-88.608
	c16.656-33.84,65.216-33.84,82.048,0l43.6,88.608c6.736,13.472,19.488,22.864,34.384,24.992l97.824,14.176
	c37.392,5.488,52.448,51.568,25.344,77.968L427.465,310.352z"/>
<path style="fill:#FFFFFF;" d="M239.369,242.096c0,32.336-21.504,58.608-47.872,58.608c-26.56,0-48.048-26.288-48.048-58.608
	c0-32.336,21.504-58.608,48.048-58.608C217.865,183.472,239.369,209.76,239.369,242.096z"/>
<ellipse style="fill:#3E4347;" cx="197.273" cy="258.576" rx="24.32" ry="24.256"/>
<g>
	
		<ellipse transform="matrix(-0.7071 -0.7071 0.7071 -0.7071 176.2453 571.7615)" style="fill:#FFFFFF;" cx="206.538" cy="249.379" rx="7.056" ry="4.96"/>
	<path style="fill:#FFFFFF;" d="M272.617,242.096c0,32.336,21.504,58.608,47.872,58.608c26.56,0,48.048-26.288,48.048-58.608
		c0-32.336-21.504-58.608-48.048-58.608C294.121,183.472,272.617,209.76,272.617,242.096z"/>
</g>
<ellipse style="fill:#3E4347;" cx="314.713" cy="258.576" rx="24.32" ry="24.256"/>
<ellipse transform="matrix(-0.7071 -0.7071 0.7071 -0.7071 376.7323 654.8023)" style="fill:#FFFFFF;" cx="323.98" cy="249.377" rx="7.056" ry="4.96"/>
<path style="fill:#3E4347;" d="M342.617,342.96c-27.984,33.184-44.672,51.712-86.608,51.712c-42.08,0-58.656-18.528-86.64-51.712
	c-6.08-7.12,0.592-17.968,9.792-15.888c51.216,11.728,102.576,11.872,153.648,0.144C342.025,325.136,348.697,335.824,342.617,342.96
	z"/>
<path style="fill:#FFFFFF;" d="M332.169,327.344c-50.688,11.536-101.68,11.392-152.512-0.176
	c18.704,22.56,25.536,27.824,76.416,27.824C306.665,354.992,313.593,349.744,332.169,327.344z"/>
<g>
</g>
<g>
</g>
<g>
</g>
<g>
</g>
<g>
</g>
<g>
</g>
<g>
</g>
<g>
</g>
<g>
</g>
<g>
</g>
<g>
</g>
<g>
</g>
<g>
</g>
<g>
</g>
<g>
</g>
</svg>
