<?xml version="1.0" encoding="iso-8859-1"?>
<!-- Generator: Adobe Illustrator 19.0.0, SVG Export Plug-In . SVG Version: 6.00 Build 0)  -->
<svg version="1.1" id="Capa_1" xmlns="http://www.w3.org/2000/svg" xmlns:xlink="http://www.w3.org/1999/xlink" x="0px" y="0px"
	 viewBox="0 0 512 512" style="enable-background:new 0 0 512 512;" xml:space="preserve">
<circle style="fill:#FFD93B;" cx="256" cy="256" r="256"/>
<path style="fill:#F4C534;" d="M512,256c0,141.44-114.64,256-256,256c-80.48,0-152.32-37.12-199.28-95.28
	c43.92,35.52,99.84,56.72,160.72,56.72c141.36,0,256-114.56,256-256c0-60.88-21.2-116.8-56.72-160.72
	C474.8,103.68,512,175.52,512,256z"/>
<path style="fill:#3E4347;" d="M402.352,359.696c-26.784,53.712-82.24,90.72-146.32,90.72c-63.936,0-119.248-36.752-146.048-90.176
	c-5.392-10.496,6.736-21.408,16.688-14.944c86.544,56.256,172.832,54.912,258.976-0.544
	C395.616,338.304,407.6,349.2,402.352,359.696z"/>
<path style="fill:#FFFFFF;" d="M277.696,192.816c-8.688,59.04,22.592,112.48,69.92,119.456s92.672-35.2,101.36-94.256
	c8.656-58.88-22.592-112.48-69.92-119.456C331.728,91.6,286.352,133.92,277.696,192.816z"/>
<circle style="fill:#3E4347;" cx="352.32" cy="236.192" r="42.832"/>
<g>
	
		<ellipse transform="matrix(-0.7071 -0.7071 0.7071 -0.7071 469.8708 637.6458)" style="fill:#FFFFFF;" cx="366.996" cy="221.509" rx="14.016" ry="8.544"/>
	<path style="fill:#FFFFFF;" d="M234.304,192.816c8.688,59.04-22.592,112.48-69.92,119.456s-92.672-35.2-101.36-94.256
		c-8.656-58.88,22.592-112.48,69.92-119.456C180.272,91.6,225.648,133.92,234.304,192.816z"/>
</g>
<circle style="fill:#3E4347;" cx="159.664" cy="236.192" r="42.832"/>
<ellipse transform="matrix(-0.7071 -0.7071 0.7071 -0.7071 140.963 501.4044)" style="fill:#FFFFFF;" cx="174.326" cy="221.508" rx="14.016" ry="8.544"/>
<path style="fill:#E24B4B;" d="M256.032,450.416c29.232,0,56.496-8,80.224-21.488c-4.64-6.8-10.048-13.024-16.304-18.368
	c-13.808-11.92-33.28-12.864-50.064-5.648c-9.888,4.4-21.504,6.912-34.528,6.912c-15.696,0-37.312-4.656-52.416,18.512
	c-0.4,0.608-0.656,1.312-1.04,1.936C204.208,443.68,229.28,450.416,256.032,450.416z"/>
<g>
</g>
<g>
</g>
<g>
</g>
<g>
</g>
<g>
</g>
<g>
</g>
<g>
</g>
<g>
</g>
<g>
</g>
<g>
</g>
<g>
</g>
<g>
</g>
<g>
</g>
<g>
</g>
<g>
</g>
</svg>
