<?xml version="1.0" encoding="iso-8859-1"?>
<!-- Generator: Adobe Illustrator 19.0.0, SVG Export Plug-In . SVG Version: 6.00 Build 0)  -->
<svg version="1.1" id="Capa_1" xmlns="http://www.w3.org/2000/svg" xmlns:xlink="http://www.w3.org/1999/xlink" x="0px" y="0px"
	 viewBox="0 0 512.001 512.001" style="enable-background:new 0 0 512.001 512.001;" xml:space="preserve">
<polygon style="fill:#65B1EF;" points="267.928,0 260.68,177.936 244.84,0 "/>
<polygon style="fill:#5A5F63;" points="244.84,506.048 252.088,328.128 267.928,506.048 "/>
<g>
	<polygon style="fill:#65B1EF;" points="505.8,24.288 331.192,185.92 485.112,3.6 	"/>
	<polygon style="fill:#65B1EF;" points="6.952,481.76 181.56,320.128 27.64,502.448 	"/>
</g>
<polygon style="fill:#5A5F63;" points="509.416,264.608 331.48,257.344 509.416,241.456 "/>
<polygon style="fill:#8CC63E;" points="3.352,241.456 181.288,248.72 3.352,264.592 "/>
<polygon style="fill:#F29A2E;" points="485.112,502.448 323.48,327.84 505.8,481.76 "/>
<polygon style="fill:#5A5F63;" points="27.64,3.6 189.272,178.208 6.952,24.288 "/>
<polygon style="fill:#F29A2E;" points="164.168,0 229.832,177.6 142.664,8.912 "/>
<g>
	<polygon style="fill:#8CC63E;" points="348.584,506.048 282.936,328.464 370.104,497.136 	"/>
	<polygon style="fill:#8CC63E;" points="370.104,8.912 290.952,180.912 348.584,0 	"/>
</g>
<polygon style="fill:#E84D88;" points="142.664,497.136 221.816,325.136 164.168,506.048 "/>
<polygon style="fill:#F29A2E;" points="509.4,160.816 331.816,226.48 500.504,139.312 "/>
<polygon style="fill:#5A5F63;" points="3.352,345.232 180.952,279.584 12.264,366.736 "/>
<g>
	<polygon style="fill:#E84D88;" points="500.488,366.736 328.488,287.584 509.4,345.232 	"/>
	<polygon style="fill:#E84D88;" points="12.264,139.312 184.264,218.464 3.352,160.816 	"/>
</g>
<circle style="fill:#FFD93B;" cx="256.312" cy="253.024" r="205.872"/>
<path style="fill:#3E4347;" d="M402.712,308.496c-22.304,59.056-79.392,101.04-146.32,101.04
	c-66.752,0-123.84-41.824-146.144-100.704c-3.776-9.84,5.744-19.52,15.584-15.424c84.304,35.264,171.248,36.256,261.456-0.496
	C396.968,288.976,406.328,298.656,402.712,308.496z"/>
<path style="fill:#F4C534;" d="M462.248,253.024c0,113.744-92.192,205.872-205.872,205.872c-64.72,0-122.496-29.856-160.256-76.624
	c35.312,28.56,80.288,45.616,129.248,45.616c113.68,0,205.872-92.128,205.872-205.872c0-48.96-17.056-93.92-45.616-129.248
	C432.328,130.528,462.248,188.304,462.248,253.024z"/>
<path style="fill:#E84D88;" d="M61.208,74.784c-0.304,0.304-0.448,0.704-0.4,1.168l2.656,15.504
	c0.208,1.056-0.896,1.856-1.856,1.344l-13.952-7.328c-0.4-0.208-0.848-0.208-1.2,0L32.504,92.8c-0.96,0.496-2.064-0.304-1.904-1.36
	l2.656-15.504c0.096-0.448-0.048-0.848-0.352-1.152l-11.28-10.976c-0.752-0.752-0.352-2.064,0.752-2.272l15.552-2.256
	c0.448-0.048,0.8-0.304,1.008-0.704l6.976-14.096c0.448-1.008,1.856-1.008,2.304,0l6.976,14.096c0.208,0.4,0.544,0.656,0.96,0.704
	l15.6,2.256c1.056,0.208,1.504,1.504,0.752,2.256L61.208,74.784z"/>
<path style="fill:#9A795F;" d="M123.784,472.672c-0.128,0.128-0.192,0.288-0.16,0.48l1.088,6.368c0.08,0.432-0.368,0.768-0.768,0.56
	l-5.728-3.008c-0.16-0.08-0.352-0.08-0.496,0l-5.728,3.008c-0.384,0.208-0.848-0.128-0.784-0.56l1.088-6.368
	c0.048-0.192-0.016-0.352-0.144-0.48l-4.64-4.512c-0.304-0.304-0.144-0.848,0.304-0.928l6.384-0.928
	c0.192-0.016,0.336-0.128,0.416-0.288l2.864-5.792c0.192-0.416,0.768-0.416,0.944,0l2.864,5.792c0.08,0.16,0.224,0.272,0.384,0.288
	l6.4,0.928c0.432,0.08,0.624,0.624,0.304,0.928L123.784,472.672z"/>
<path style="fill:#F29A2E;" d="M113.192,426.448c-0.128,0.128-0.192,0.288-0.16,0.48l1.088,6.368c0.08,0.432-0.368,0.768-0.768,0.56
	l-5.728-3.008c-0.16-0.08-0.352-0.08-0.496,0l-5.728,3.008c-0.384,0.208-0.848-0.128-0.784-0.56l1.088-6.368
	c0.048-0.192-0.016-0.352-0.144-0.48l-4.64-4.512c-0.304-0.304-0.144-0.848,0.304-0.928l6.384-0.928
	c0.192-0.016,0.336-0.128,0.416-0.288l2.864-5.792c0.192-0.416,0.768-0.416,0.944,0l2.864,5.792c0.08,0.16,0.224,0.272,0.384,0.288
	l6.4,0.928c0.432,0.08,0.624,0.624,0.304,0.928L113.192,426.448z"/>
<path style="fill:#45CBEA;" d="M225.048,486.384c-0.128,0.128-0.192,0.288-0.16,0.48l1.088,6.368c0.08,0.432-0.368,0.768-0.768,0.56
	l-5.728-3.008c-0.16-0.08-0.352-0.08-0.496,0l-5.728,3.008c-0.384,0.208-0.848-0.128-0.784-0.56l1.088-6.368
	c0.048-0.192-0.016-0.352-0.144-0.48l-4.64-4.512c-0.304-0.304-0.144-0.848,0.304-0.928l6.384-0.928
	c0.192-0.016,0.336-0.128,0.416-0.288l2.864-5.792c0.192-0.416,0.768-0.416,0.944,0l2.864,5.792c0.08,0.16,0.224,0.272,0.384,0.288
	l6.4,0.928c0.432,0.08,0.624,0.624,0.304,0.928L225.048,486.384z"/>
<path style="fill:#5A5F63;" d="M434.984,59.76c-0.416,0.112-0.736,0.384-0.928,0.8l-5.344,14.8
	c-0.352,1.008-1.696,1.168-2.288,0.256l-8.496-13.264c-0.256-0.368-0.64-0.592-1.04-0.592l-15.744-0.528
	c-1.072-0.032-1.648-1.28-0.992-2.128l9.984-12.16c0.304-0.336,0.384-0.768,0.272-1.184l-4.384-15.136
	c-0.288-1.024,0.72-1.968,1.776-1.584l14.64,5.728c0.416,0.176,0.848,0.128,1.216-0.112l13.04-8.8c0.896-0.656,2.112,0.048,2,1.136
	l-0.912,15.712c-0.032,0.448,0.16,0.832,0.48,1.088l12.448,9.68c0.816,0.704,0.56,2.048-0.464,2.336L434.984,59.76z"/>
<path style="fill:#8CC63E;" d="M473.368,119.536c-0.176,0.144-0.288,0.368-0.272,0.608l0.672,8.64
	c0.064,0.592-0.592,0.976-1.088,0.64l-7.248-4.736c-0.208-0.128-0.464-0.16-0.656-0.064l-7.984,3.28
	c-0.544,0.224-1.104-0.272-0.976-0.848l2.24-8.368c0.08-0.24,0.016-0.464-0.128-0.656l-5.616-6.624
	c-0.368-0.448-0.096-1.152,0.528-1.2l8.608-0.416c0.256,0,0.448-0.128,0.576-0.336l4.512-7.36c0.304-0.528,1.072-0.448,1.264,0.128
	l3.104,8.096c0.096,0.224,0.272,0.384,0.48,0.432l8.416,2.064c0.56,0.16,0.752,0.912,0.304,1.28L473.368,119.536z"/>
<path style="fill:#5A5F63;" d="M35.48,218.8c-0.272,0.224-0.432,0.56-0.432,0.944l1.04,13.376c0.08,0.912-0.912,1.504-1.68,0.992
	l-11.232-7.36c-0.32-0.208-0.704-0.24-1.024-0.096l-12.368,5.088c-0.848,0.352-1.712-0.416-1.504-1.312l3.456-12.944
	c0.128-0.368,0.016-0.736-0.208-1.008l-8.672-10.24c-0.576-0.704-0.144-1.776,0.816-1.856L17,203.744
	c0.384,0,0.704-0.192,0.896-0.512l6.992-11.408c0.464-0.832,1.664-0.704,1.968,0.176l4.8,12.544
	c0.144,0.352,0.416,0.592,0.752,0.672l13.024,3.184c0.88,0.256,1.152,1.408,0.464,1.984L35.48,218.8z"/>
<path style="fill:#F29A2E;" d="M16.936,288.736c-0.128,0.096-0.192,0.256-0.192,0.416l0.464,5.936c0.032,0.4-0.4,0.672-0.736,0.448
	l-4.976-3.264c-0.144-0.096-0.32-0.112-0.448-0.048L5.56,294.48c-0.368,0.16-0.768-0.192-0.672-0.576l1.536-5.744
	c0.048-0.16,0.016-0.32-0.096-0.448l-3.856-4.544c-0.256-0.304-0.064-0.784,0.368-0.816l5.92-0.288c0.176,0,0.304-0.08,0.4-0.224
	l3.104-5.056c0.208-0.368,0.736-0.304,0.864,0.08l2.128,5.568c0.064,0.16,0.192,0.272,0.336,0.304l5.776,1.408
	c0.384,0.112,0.512,0.624,0.208,0.88L16.936,288.736z"/>
<path style="fill:#E84D88;" d="M36.328,318.256c-0.128,0.096-0.192,0.256-0.192,0.416l0.464,5.936c0.032,0.4-0.4,0.672-0.736,0.448
	l-4.992-3.264c-0.144-0.096-0.32-0.112-0.448-0.048L24.92,324c-0.368,0.16-0.768-0.192-0.672-0.576l1.536-5.744
	c0.048-0.16,0.016-0.32-0.096-0.448l-3.856-4.544c-0.256-0.304-0.064-0.784,0.368-0.816l5.92-0.288c0.176,0,0.304-0.08,0.4-0.224
	l3.104-5.056c0.208-0.368,0.736-0.304,0.864,0.08l2.128,5.568c0.064,0.16,0.192,0.272,0.336,0.304l5.776,1.408
	c0.384,0.112,0.512,0.624,0.208,0.88L36.328,318.256z"/>
<path style="fill:#FC97B2;" d="M331.416,505.12c-0.128,0.096-0.192,0.256-0.192,0.416l0.464,5.936c0.032,0.4-0.4,0.672-0.736,0.448
	l-4.976-3.264c-0.144-0.096-0.32-0.112-0.448-0.048l-5.488,2.256c-0.368,0.16-0.768-0.192-0.672-0.576l1.536-5.744
	c0.048-0.16,0.016-0.32-0.096-0.448l-3.856-4.544c-0.256-0.304-0.064-0.784,0.368-0.816l5.92-0.288c0.176,0,0.304-0.08,0.4-0.224
	l3.104-5.056c0.208-0.368,0.736-0.304,0.864,0.08l2.128,5.568c0.064,0.16,0.192,0.272,0.336,0.304l5.776,1.408
	c0.384,0.112,0.512,0.624,0.208,0.88L331.416,505.12z"/>
<path style="fill:#89664C;" d="M297.528,476.848c-0.128,0.096-0.192,0.256-0.192,0.416l0.464,5.936c0.032,0.4-0.4,0.672-0.736,0.448
	l-4.976-3.264c-0.144-0.096-0.32-0.112-0.448-0.048l-5.488,2.256c-0.368,0.16-0.768-0.192-0.672-0.576l1.536-5.744
	c0.048-0.16,0.016-0.32-0.096-0.448l-3.856-4.544c-0.256-0.304-0.064-0.784,0.368-0.816l5.92-0.288c0.176,0,0.304-0.08,0.4-0.224
	l3.104-5.056c0.208-0.368,0.736-0.304,0.864,0.08l2.128,5.568c0.064,0.16,0.192,0.272,0.336,0.304l5.776,1.408
	c0.384,0.112,0.512,0.624,0.208,0.88L297.528,476.848z"/>
<path style="fill:#8CC63E;" d="M399.448,446.112c-0.128,0.096-0.192,0.256-0.192,0.416l0.464,5.936c0.032,0.4-0.4,0.672-0.736,0.448
	l-4.976-3.264c-0.144-0.096-0.32-0.112-0.448-0.048l-5.488,2.256c-0.368,0.16-0.768-0.192-0.672-0.576l1.536-5.744
	c0.048-0.16,0.016-0.32-0.096-0.448l-3.856-4.544c-0.256-0.304-0.064-0.784,0.368-0.816l5.92-0.288c0.176,0,0.304-0.08,0.4-0.224
	l3.104-5.056c0.208-0.368,0.736-0.304,0.864,0.08l2.128,5.568c0.064,0.16,0.192,0.272,0.336,0.304l5.776,1.408
	c0.384,0.112,0.512,0.624,0.208,0.88L399.448,446.112z"/>
<path style="fill:#65B1EF;" d="M456.088,374.832c-0.128,0.096-0.192,0.256-0.192,0.416l0.464,5.936c0.032,0.4-0.4,0.672-0.736,0.448
	l-4.976-3.264c-0.144-0.096-0.32-0.112-0.448-0.048l-5.488,2.256c-0.368,0.16-0.768-0.192-0.672-0.576l1.536-5.744
	c0.048-0.16,0.016-0.32-0.096-0.448l-3.856-4.544c-0.256-0.304-0.064-0.784,0.368-0.816l5.92-0.288c0.176,0,0.304-0.08,0.4-0.224
	l3.104-5.056c0.208-0.368,0.736-0.304,0.864,0.08l2.128,5.568c0.064,0.16,0.192,0.272,0.336,0.304l5.776,1.408
	c0.384,0.112,0.512,0.624,0.208,0.88L456.088,374.832z"/>
<path style="fill:#E24B4B;" d="M430.424,486.4c-0.128,0.096-0.192,0.256-0.192,0.416l0.464,5.936c0.032,0.4-0.4,0.672-0.736,0.448
	l-4.976-3.264c-0.144-0.096-0.32-0.112-0.448-0.048l-5.488,2.256c-0.368,0.16-0.768-0.192-0.672-0.576l1.536-5.744
	c0.048-0.16,0.016-0.32-0.096-0.448l-3.856-4.544c-0.256-0.304-0.064-0.784,0.368-0.816l5.92-0.288c0.176,0,0.304-0.08,0.4-0.224
	l3.104-5.056c0.208-0.368,0.736-0.304,0.864,0.08l2.128,5.568c0.064,0.16,0.192,0.272,0.336,0.304l5.776,1.408
	c0.384,0.112,0.512,0.624,0.208,0.88L430.424,486.4z"/>
<path style="fill:#E84D88;" d="M504.296,86.496c-0.144,0.064-0.24,0.176-0.272,0.336l-0.944,5.536
	c-0.064,0.384-0.528,0.512-0.784,0.24l-3.808-4.144c-0.112-0.112-0.256-0.176-0.4-0.144l-5.536,0.8
	c-0.384,0.048-0.656-0.352-0.48-0.688l2.736-4.896c0.08-0.144,0.08-0.288,0.016-0.432l-2.48-5.056
	c-0.16-0.336,0.128-0.736,0.528-0.672l5.472,1.104c0.16,0.032,0.304,0,0.416-0.112l4.016-3.904c0.272-0.288,0.736-0.112,0.768,0.272
	l0.656,5.584c0.016,0.16,0.112,0.288,0.24,0.352l4.96,2.64c0.336,0.192,0.32,0.688-0.016,0.848L504.296,86.496z"/>
<path style="fill:#5A5F63;" d="M77.464,17.536c15.152-3.376,39.056-2.672,51.776,6.448c9.904,7.344,10.384,20.096,3.76,27.92
	c-13.52,16.88-38.144,2.528-31.104-13.472c5.552-14.08,26.256-8.032,22.576,5.168c-1.44,4.784-4.576,5.76-4.384,5.792l-0.16-0.272
	c-0.16,0,2.624-1.408,3.312-5.792c1.488-11.584-14.16-14.384-18.32-3.68c-5.616,13.328,15.04,24.32,26.768,11.104
	c6.944-7.456,6.24-19.68-3.408-25.36c-11.408-6.576-38.032-8.64-50.768-7.536L77.464,17.536z"/>
<path style="fill:#65B1EF;" d="M480.28,198.256c-1.472,5.792-2.592,9.792-2.896,15.968c-0.208,4.704,0.832,10.432,4.464,14.672
	c9.968,12.448,26.096-2.336,16.624-10.24c-3.664-3.712-10.176-0.592-10.912,3.584c-0.944,4.288,3.328,7.152,5.936,7.28
	c2.832,0.288,4.16-1.248,4.144-1.12c-0.016-0.144-1.04,1.616-4.176,1.792c-9.104,0.208-11.392-11.008-2.784-15.408
	c2.864-1.6,7.248-1.296,10.016,1.216c10.352,8.768,0.224,24.624-12.8,20.832c-8.176-2.24-14.192-10.08-12.768-22.784
	C475.832,208.496,478.072,203.52,480.28,198.256z"/>
<g>
	<path style="fill:#E84D88;" d="M285.928,5.072c-6.576,14.4,2.576,29.92,16.672,28.08c6.8-0.736,13.504-6.896,13.568-14.144
		c0.544-8.224-7.344-12.688-13.104-10.288c-7.152,2.72-8.72,10.8-4.976,14.128c3.92,3.52,9.024,0.816,9.344-4.128
		c0.128-3.728,0.192-5.856,0.192-5.856c0.8,5.184,2.064,8.992-1.792,12.544c-2.384,2.128-6.624,2.24-9.712-0.128
		c-6.768-5.088-4.032-17.76,5.184-21.104c9.536-3.984,21.184,3.648,20.464,15.072c-0.56,10.288-9.68,18.064-18.736,18.72
		C285.112,39.552,275.784,18.112,285.928,5.072z"/>
	<path style="fill:#E84D88;" d="M34.968,423.792l-4.096-15.744c2.304-1.968,5.744-2.624,9.68-4.432
		c17.872-8.528,27.712-26.4,26.736-44.784C85.976,386.4,51.368,423.632,34.968,423.792z"/>
</g>
<path style="fill:#F29A2E;" d="M493.992,311.568c-4.16,2.08-6.56,4.96-8.32,7.84c-6.24-5.6-3.2-14.88-1.44-23.84
	c-3.728,9.744-8.704,18.976-0.32,26.72c-2.8,6.24-3.36,10.4-3.04,14.24c0,0,0.32-5.92,4.8-12.8c4.48,3.2,11.68,4.16,16.8-0.16
	C508.872,317.648,502.472,307.888,493.992,311.568z M499.752,320.688c-3.04,2.88-8.48,2.56-12,0.16c1.92-2.4,4.48-4.8,7.52-6.08
	C499.912,312.848,503.432,317.648,499.752,320.688z"/>
<path style="fill:#E24B4B;" d="M256.392,409.536c23.984,0,46.672-5.472,66.976-15.104c-0.816-7.2-2.768-14.48-6.32-21.616
	c-8.416-16.896-29.28-22.352-46.384-14.192c-11.104,5.072-23.376,6.096-34.96,3.824c-19.344-4.032-39.12,5.936-43.168,25.296
	c-0.56,2.608-0.624,5.152-0.864,7.728C211.432,404.432,233.304,409.536,256.392,409.536z"/>
<path style="fill:#F4C534;" d="M239.64,205.664c0,39.488-26.704,71.472-59.664,71.472s-59.648-31.984-59.648-71.472
	c0-39.36,26.704-71.344,59.648-71.344C212.936,134.32,239.64,166.304,239.64,205.664z"/>
<path style="fill:#3E4347;" d="M238.92,216.064c-11.12-12.816-33.248-21.552-58.944-21.552s-47.824,8.736-58.928,21.552
	c0.016-26.832,26.256-45.072,58.928-45.072C212.664,170.992,238.888,189.232,238.92,216.064z"/>
<path style="fill:#F4C534;" d="M392.44,205.664c0,39.488-26.704,71.472-59.664,71.472s-59.648-31.984-59.648-71.472
	c0-39.36,26.704-71.344,59.648-71.344C365.752,134.32,392.44,166.304,392.44,205.664z"/>
<g>
	<path style="fill:#3E4347;" d="M391.72,216.064c-11.12-12.816-33.248-21.552-58.944-21.552s-47.824,8.736-58.928,21.552
		c0.016-26.832,26.256-45.072,58.928-45.072C365.464,170.992,391.704,189.232,391.72,216.064z"/>
	<path style="fill:#3E4347;" d="M396.936,149.136c-3.296,0-6.528-1.632-8.432-4.624c-29.872-46.72-81.568-51.152-82.08-51.184
		c-5.52-0.416-9.648-5.216-9.216-10.72c0.4-5.536,5.584-9.728,10.72-9.216c2.528,0.192,62.24,5.312,97.424,60.352
		c2.992,4.656,1.632,10.832-3.024,13.808C400.648,148.624,398.792,149.136,396.936,149.136z"/>
	<path style="fill:#3E4347;" d="M115.832,149.136c-1.84,0-3.696-0.512-5.376-1.584c-4.656-2.96-6.016-9.152-3.024-13.792
		c35.184-55.056,94.88-60.176,97.408-60.352c5.04-0.384,10.288,3.68,10.704,9.184c0.432,5.488-3.664,10.304-9.168,10.752
		c-0.512,0.048-52.4,4.768-82.096,51.184C122.36,147.504,119.128,149.136,115.832,149.136z"/>
</g>
<path style="fill:#FFFFFF;" d="M129.816,294.864c29.504,56.336,58.352,55.904,126.576,55.904c68.432,0,97.344,0.304,126.896-56.432
	C295.928,328.864,211.64,328,129.816,294.864z"/>
<g>
</g>
<g>
</g>
<g>
</g>
<g>
</g>
<g>
</g>
<g>
</g>
<g>
</g>
<g>
</g>
<g>
</g>
<g>
</g>
<g>
</g>
<g>
</g>
<g>
</g>
<g>
</g>
<g>
</g>
</svg>
