<?xml version="1.0" encoding="iso-8859-1"?>
<!-- Generator: Adobe Illustrator 19.0.0, SVG Export Plug-In . SVG Version: 6.00 Build 0)  -->
<svg version="1.1" id="Capa_1" xmlns="http://www.w3.org/2000/svg" xmlns:xlink="http://www.w3.org/1999/xlink" x="0px" y="0px"
	 viewBox="0 0 512 512" style="enable-background:new 0 0 512 512;" xml:space="preserve">
<g>
	<circle style="fill:#FFD93B;" cx="256" cy="256" r="255.968"/>
	<path style="fill:#FFD93B;" d="M511.968,256c0,141.424-114.624,255.968-255.968,255.968c-80.464,0-152.304-37.12-199.248-95.264
		c43.92,35.52,99.824,56.72,160.704,56.72c141.344,0,255.968-114.544,255.968-255.968c0-60.88-21.2-116.784-56.72-160.704
		C474.768,103.696,511.968,175.536,511.968,256z"/>
</g>
<path style="fill:#E9EFF4;" d="M512,99.408v165.136c0,10.96-8.864,19.824-19.68,19.824H305.28
	c-12.976,0-23.488-10.512-23.488-23.488v-21.264c0-12.88-8.864-24.768-21.584-26.736c-16.192-2.496-29.984,10-29.984,25.536v22.464
	c0,12.976-10.512,23.488-23.488,23.488H19.68c-10.864,0-19.68-8.816-19.68-19.68V99.408c0-10.864,8.816-19.68,19.68-19.68h472.64
	C503.136,79.728,512,88.448,512,99.408z"/>
<path style="fill:#45CBEA;" d="M204.624,137.92v88.256c0,12.784-10.256,23.04-23.056,23.04H58.192
	c-12.784,0-23.056-10.256-23.056-23.04V137.92c0-12.784,10.256-23.056,23.056-23.056h123.392
	C194.368,114.864,204.624,125.12,204.624,137.92z"/>
<path style="fill:#E84D88;" d="M476.864,137.92v88.256c0,12.784-10.256,23.04-23.056,23.04H330.416
	c-12.784,0-23.056-10.256-23.056-23.04V137.92c0-12.784,10.256-23.056,23.056-23.056h123.392
	C466.608,114.864,476.864,125.12,476.864,137.92z"/>
<g>
	<polygon style="fill:#38C0DC;" points="95.184,114.864 35.136,174.912 35.136,190.128 110.416,114.864 	"/>
	<path style="fill:#38C0DC;" d="M123.296,114.864l-88.16,88.16v23.152c0,1.872,0.288,3.68,0.704,5.424l116.736-116.736
		C152.576,114.864,123.296,114.864,123.296,114.864z"/>
</g>
<g>
	<polygon style="fill:#D23F77;" points="373.344,114.864 307.376,180.832 307.376,196.064 388.56,114.864 	"/>
	<path style="fill:#D23F77;" d="M401.456,114.864l-94.08,94.08v17.232c0,3.536,0.848,6.832,2.24,9.808l121.12-121.12
		C430.736,114.864,401.456,114.864,401.456,114.864z"/>
</g>
<path style="fill:#3E4347;" d="M329.488,395.216c0,44.688-32.912,80.992-73.424,80.992c-40.672,0-73.424-36.304-73.424-80.992
	s32.752-80.992,73.424-80.992C296.576,314.224,329.488,350.528,329.488,395.216z"/>
<path style="fill:#E24B4B;" d="M256.064,476.208c21.008,0,39.84-9.888,53.216-25.504c-0.192-18.96-15.648-34.192-34.512-34.192
	c-9.136,0-17.28,3.424-23.408,9.28c-4.288-2-8.992-3.008-13.984-3.008c-17.088,0-31.136,12.576-33.808,28.928
	C216.864,466.784,235.424,476.208,256.064,476.208z"/>
<g style="opacity:0.2;">
	<path style="fill:#FFFFFF;" d="M290.256,434.848c-0.96,3.36-5.76,5.12-10.88,3.84s-8.48-5.12-7.52-8.64
		c0.8-3.36,5.76-5.12,10.72-3.84C287.696,427.648,291.056,431.488,290.256,434.848z"/>
</g>
<g>
</g>
<g>
</g>
<g>
</g>
<g>
</g>
<g>
</g>
<g>
</g>
<g>
</g>
<g>
</g>
<g>
</g>
<g>
</g>
<g>
</g>
<g>
</g>
<g>
</g>
<g>
</g>
<g>
</g>
</svg>
