<?xml version="1.0" encoding="iso-8859-1"?>
<!-- Generator: Adobe Illustrator 19.0.0, SVG Export Plug-In . SVG Version: 6.00 Build 0)  -->
<svg version="1.1" id="Capa_1" xmlns="http://www.w3.org/2000/svg" xmlns:xlink="http://www.w3.org/1999/xlink" x="0px" y="0px"
	 viewBox="0 0 512 512" style="enable-background:new 0 0 512 512;" xml:space="preserve">
<circle style="fill:#FFD93B;" cx="256" cy="256" r="256"/>
<path style="fill:#F4C534;" d="M512,256c0,141.44-114.64,256-256,256c-80.48,0-152.32-37.12-199.28-95.28
	c43.92,35.52,99.84,56.72,160.72,56.72c141.36,0,256-114.56,256-256c0-60.88-21.2-116.8-56.72-160.72
	C474.8,103.68,512,175.52,512,256z"/>
<g>
	<path style="fill:#3E4347;" d="M97.936,91.968c0,0,52.256-41.84,112.896-25.12C210.832,66.848,135.936-4.848,97.936,91.968z"/>
	<path style="fill:#3E4347;" d="M414.064,91.968c0,0-52.256-41.84-112.896-25.12C301.168,66.848,376.064-4.848,414.064,91.968z"/>
	<path style="fill:#3E4347;" d="M501.728,132.016v39.632c0,2.048-0.8,3.936-1.968,5.616c-5.52,7.92-3.872,14.288-3.872,36.624
		c0,61.824-40.976,106.768-97.504,106.768c-59.792,0-110.992-50.56-126.256-101.024c-2.16-7.136-8.672-12.016-16.128-12.016l0,0
		c-7.456,0-13.968,4.88-16.144,12.016c-15.264,50.464-66.464,101.024-126.256,101.024c-56.512,0-97.504-44.944-97.504-106.768
		c0-22.336,1.664-28.704-3.872-36.624c-1.168-1.68-1.968-3.584-1.968-5.616v-39.632c0-6.064,6.08-10.72,12.592-8.416
		c15.296,5.408,32.08,1.312,46.512-6.112c39.088-20.096,107.136-8.4,140.192,12.4c29.152,18.336,62.208,19.296,92.88,0
		c32.752-20.608,100.784-32.656,140.192-12.4c14.432,7.424,31.2,11.52,46.512,6.112
		C495.648,121.296,501.728,125.952,501.728,132.016z"/>
</g>
<g>
	<path style="fill:#65B1EF;" d="M283.888,189.168c0,47.472,55.312,110.624,114.432,110.624c47.472,0,76.736-38.48,76.736-85.968
		c0-47.472-29.264-85.968-76.736-85.968C350.848,127.872,283.888,141.696,283.888,189.168z"/>
	<path style="fill:#65B1EF;" d="M228.096,189.168c0,47.472-55.312,110.624-114.432,110.624c-47.472,0-76.736-38.48-76.736-85.968
		c0-47.472,29.264-85.968,76.736-85.968C161.136,127.872,228.096,141.696,228.096,189.168z"/>
</g>
<g>
	<path style="fill:#4E99D2;" d="M161.888,132.688l-118.24,118.24C49.12,265.04,57.76,277.04,69.232,285.6L205.28,149.552
		C193.408,141.504,178.064,136.08,161.888,132.688z"/>
	<path style="fill:#4E99D2;" d="M37.184,220.4c0.448,7.696,1.696,15.072,3.648,22.064l111.552-111.552
		c-7.776-1.248-15.584-2.048-23.2-2.512L37.184,220.4z"/>
	<path style="fill:#4E99D2;" d="M420.352,131.008L305.296,246.064c8.192,11.296,18.352,21.776,29.824,30.432L456.256,155.36
		C447.184,143.84,435.056,135.28,420.352,131.008z"/>
	<path style="fill:#4E99D2;" d="M300.768,239.312l110.336-110.336c-4.112-0.656-8.352-1.104-12.8-1.104
		c-3.92,0-8.016,0.144-12.16,0.336l-94.368,94.368C294.256,228.224,297.264,233.824,300.768,239.312z"/>
</g>
<path style="fill:#3E4347;" d="M415.136,343.6c-23.056,75.424-83.52,129.44-154.88,129.44c-71.168,0-131.84-54.016-154.88-129.616
	c-1.664-5.904,4.048-10.88,9.776-8.48c56.24,24.512,233.616,24.896,290.208,0.176C411.072,332.528,416.976,337.696,415.136,343.6z"
	/>
<path style="fill:#E24B4B;" d="M260.256,473.024c27.92,0,54.128-8.368,77.12-22.944c-6.208-29.824-38.736-46.48-66.208-34.624
	c-8.624,3.712-18.176,4.16-27.184,1.488c-25.616-7.616-52.896,7.808-60.048,33.616C206.768,464.864,232.704,473.024,260.256,473.024
	z"/>
<path style="fill:#FFFFFF;" d="M398.592,337.456c-28.608,48-82.912,61.84-138.336,61.84s-109.936-14.4-138.336-62.048
	C181.824,358.56,338.48,358.784,398.592,337.456z"/>
<g>
</g>
<g>
</g>
<g>
</g>
<g>
</g>
<g>
</g>
<g>
</g>
<g>
</g>
<g>
</g>
<g>
</g>
<g>
</g>
<g>
</g>
<g>
</g>
<g>
</g>
<g>
</g>
<g>
</g>
</svg>
