<?xml version="1.0"?>
<svg xmlns="http://www.w3.org/2000/svg" height="512px" viewBox="0 0 64 64" width="512px" class=""><g><path d="m42 43a2 2 0 0 0 0-4h-20a2 2 0 0 0 0 4h6v5.45l-2.71 4.55a2 2 0 0 0 -.15 1.77l2 5a2 2 0 0 0 1.86 1.23 2.11 2.11 0 0 0 .74-.14 2 2 0 0 0 1.12-2.6l-1.63-4.08 2.48-4.18a1.7 1.7 0 0 0 .18-.39l1.75 5.15a2 2 0 0 0 1.25 1.24l5.11 1.75a2 2 0 0 0 2.16-.6 1.94 1.94 0 0 0 .37-.66 2 2 0 0 0 -1.26-2.49l-4.16-1.4-1.11-3.6v-6z" fill="#a8dba8" data-original="#A8DBA8" class="" style="fill:#FFC603" data-old_color="#a8dba8"/><path d="m32 3a6 6 0 0 1 6 6v8a0 0 0 0 1 0 0h-12a0 0 0 0 1 0 0v-8a6 6 0 0 1 6-6z" fill="#a8dba8" data-original="#A8DBA8" class="" style="fill:#FFC603" data-old_color="#a8dba8"/><path d="m54.55 11.55a4.1 4.1 0 0 0 -6.75 1.45l-1.8 5 6 3 3-4.18a4.08 4.08 0 0 0 -.45-5.27z" fill="#a8dba8" data-original="#A8DBA8" class="" style="fill:#FFC603" data-old_color="#a8dba8"/><path d="m9.45 11.55a4.1 4.1 0 0 1 6.75 1.45l1.8 5-6 3-3-4.18a4.08 4.08 0 0 1 .45-5.27z" fill="#a8dba8" data-original="#A8DBA8" class="" style="fill:#FFC603" data-old_color="#a8dba8"/><g fill="#cff09e"><path d="m57 51a3 3 0 0 1 -1.84-.64 3.94 3.94 0 0 1 -4.72-.31 2.45 2.45 0 0 1 -1.94 1 2.5 2.5 0 0 1 -2.5-2.54 2.49 2.49 0 0 0 1.5 4.49 2.45 2.45 0 0 0 1.94-1 3.94 3.94 0 0 0 4.72.31 3 3 0 0 0 4.84-2.07 3 3 0 0 1 -2 .76z" data-original="#CFF09E" class="active-path" style="fill:#FFDF71" data-old_color="#CFF09E"/><path d="m12 35a3 3 0 0 1 -2.26-1 2 2 0 0 1 -1.74 1 2 2 0 0 1 -2-1.74 2 2 0 0 0 1 3.74 2 2 0 0 0 1.74-1 3 3 0 0 0 5.26-1.76 3 3 0 0 1 -2 .76z" data-original="#CFF09E" class="active-path" style="fill:#FFDF71" data-old_color="#CFF09E"/><path d="m18 51a2 2 0 0 1 -1.32-.51 3 3 0 0 1 -3.94-.49 2 2 0 0 1 -1.74 1 2 2 0 0 1 -2-1.74 2 2 0 0 0 1 3.74 2 2 0 0 0 1.74-1 3 3 0 0 0 3.94.53 2 2 0 0 0 3.32-1.53 2.06 2.06 0 0 0 0-.26 2 2 0 0 1 -1 .26z" data-original="#CFF09E" class="active-path" style="fill:#FFDF71" data-old_color="#CFF09E"/><path d="m42 8a5.91 5.91 0 0 1 .78-2.95 5.24 5.24 0 0 0 -4.78 5.22v6.73l8 1 1.46-4a6 6 0 0 1 -5.46-6z" data-original="#CFF09E" class="active-path" style="fill:#FFDF71" data-old_color="#CFF09E"/><path d="m56 19a4 4 0 0 1 .52-1.94 3.49 3.49 0 0 0 -2.75 1.47l-1.77 2.47 2.18 2.18a3.56 3.56 0 0 0 5.26-.24 4 4 0 0 1 -3.44-3.94z" data-original="#CFF09E" class="active-path" style="fill:#FFDF71" data-old_color="#CFF09E"/><path d="m22 11a6 6 0 0 1 -5.54-3.71 5.24 5.24 0 0 0 -.62 4.77l2.16 5.94 8-1v-6.73a4.56 4.56 0 0 0 -.06-.75 6 6 0 0 1 -3.94 1.48z" data-original="#CFF09E" class="active-path" style="fill:#FFDF71" data-old_color="#CFF09E"/><path d="m10.23 18.53a3.51 3.51 0 0 0 -3.23-1.47 5 5 0 0 1 1 2.94 5 5 0 0 1 -2 4 3.56 3.56 0 0 0 3.81-.79l2.19-2.21z" data-original="#CFF09E" class="active-path" style="fill:#FFDF71" data-old_color="#CFF09E"/></g><circle cx="32" cy="35" fill="#a8dba8" r="4" data-original="#A8DBA8" class="" style="fill:#FFC603" data-old_color="#a8dba8"/><path d="m60.67 18.4v-.07a4.56 4.56 0 0 0 -3.77-2.33 3.05 3.05 0 0 0 -.43 0 5.08 5.08 0 0 0 -5.92-6.58 4.54 4.54 0 0 0 -1.09.38 6.24 6.24 0 0 0 -4.25-5.5 6.17 6.17 0 0 0 -5.62.86 6.4 6.4 0 0 0 -1.14 1.06 7 7 0 0 0 -12.9 0 6.4 6.4 0 0 0 -1.14-1.06 6.23 6.23 0 0 0 -9.26 2.34 6.1 6.1 0 0 0 -.61 2.3 4.54 4.54 0 0 0 -1.09-.38 5.08 5.08 0 0 0 -5.92 6.58 3.05 3.05 0 0 0 -.43 0 4.55 4.55 0 0 0 -3.73 2.3v.06a4.56 4.56 0 0 0 3.63 6.86h.25a4.55 4.55 0 0 0 3.23-1.34l1.55-1.55 9.31 7.44h.05l3.16 8.23h-2.55a3 3 0 0 0 0 6h5v4.17l-2.57 4.29a3 3 0 0 0 -.22 2.65l2 5a3 3 0 0 0 5.55.07 3 3 0 0 0 0-2.29l-1.45-3.62 1.32-2.2 1 3a3 3 0 0 0 1.95 1.93l5.1 1.71a3 3 0 0 0 3.24-.91 2.9 2.9 0 0 0 .56-1 3 3 0 0 0 -1.89-3.8l-3.68-1.23-.91-2.92v-4.85h5a3 3 0 0 0 0-6h-2.55l3.12-8.19 9.31-7.44 1.55 1.55a4.55 4.55 0 0 0 3.23 1.34h.34a4.56 4.56 0 0 0 3.71-6.82zm-14.13 1 3.61 1.81-6.15 4.94zm-4.54 6.36-2.52-7.57 5.16.64zm9-14.34a3.09 3.09 0 0 1 3.19 4.82l-1.34 1.88-1.15 1.6-4.46-2.22 1.5-4.12a3.08 3.08 0 0 1 2.26-1.96zm-10.24-4.59a4.24 4.24 0 0 1 6.46 4.89l-.36 1-1.12 3.08-.41 1.13-6.33-.81v-5.85a4.2 4.2 0 0 1 1.76-3.44zm-13.76 2.17a5 5 0 0 1 10 0v7h-10zm-9.54 10.39 2.54 6.76-6.15-4.95zm1.93-.56 5.16-.64-2.55 7.57zm-2.39-10.41a4.17 4.17 0 0 1 2.47-2.17 4.27 4.27 0 0 1 1.31-.25 4.26 4.26 0 0 1 4.22 4.27v5.85l-6.33.79-.41-1.13-1.12-3.08-.36-1a4.16 4.16 0 0 1 .22-3.28zm-6.79 3.83a3.11 3.11 0 0 1 2.18-.9 3.14 3.14 0 0 1 .68.07 3.08 3.08 0 0 1 2.24 2l1.5 4.12-4.44 2.22-.61-.85-1.93-2.67a3.1 3.1 0 0 1 .33-3.99zm-1.1 10.23a2.52 2.52 0 0 1 -2 .74 2.55 2.55 0 0 1 -2.08-3.83l-.83-.49.91.43a2.48 2.48 0 0 1 2.09-1.33 2.5 2.5 0 0 1 2.22 1.07l1.27 1.78zm12.89 19.52a1 1 0 0 1 0-2h6.38l-1 2zm7-7a3 3 0 1 1 3 3 3 3 0 0 1 -3-3zm6 8.24v1.76h-6v-1.76l1.62-3.24h2.76zm6 11.67a1 1 0 0 1 .63 1.26 1.06 1.06 0 0 1 -.18.33 1 1 0 0 1 -1.08.3l-5.11-1.71a1 1 0 0 1 -.63-.63l-1.74-5.14a1 1 0 0 0 -1-.68 1 1 0 0 0 -.94.68 1.72 1.72 0 0 1 -.09.19l-2.49 4.15a1 1 0 0 0 -.07.89l1.63 4.08a1 1 0 0 1 -.56 1.3 1 1 0 0 1 -1.3-.56l-2-5a1 1 0 0 1 .07-.88l2.72-4.49a1 1 0 0 0 .14-.51v-1.49h6v2a1.54 1.54 0 0 0 0 .3l1.11 3.56a1 1 0 0 0 .64.65zm2-13.91a1 1 0 0 1 -1 1h-5.38l-1-2h6.38a1 1 0 0 1 1 1zm-7-3a4.92 4.92 0 0 0 1-3 5 5 0 0 0 -10 0 4.92 4.92 0 0 0 1 3h-1.31l-3.54-9.29 3.57-10.71h10.56l3.57 10.71-3.54 9.29zm22.71-15.73a2.57 2.57 0 0 1 -1.86.95 2.54 2.54 0 0 1 -2-.74l-1.58-1.59 1.27-1.78a2.57 2.57 0 0 1 4.31.21v.07a2.55 2.55 0 0 1 -.14 2.88z" fill="#3b8686" data-original="#3B8686" class="" style="fill:#000000" data-old_color="#3b8686"/><path d="m56 46a5 5 0 0 0 -8.56 1 3.5 3.5 0 1 0 2.12 6.34 5 5 0 0 0 4.58.18 3.87 3.87 0 0 0 1.86.48 4 4 0 0 0 4-4 4 4 0 0 0 -4-4zm0 6a2 2 0 0 1 -1.22-.43 1 1 0 0 0 -.62-.21 1 1 0 0 0 -.54.16 3 3 0 0 1 -1.62.48 3 3 0 0 1 -1.91-.71 1 1 0 0 0 -.74-.23 1 1 0 0 0 -.69.37 1.49 1.49 0 1 1 -1.16-2.43 2 2 0 0 1 .37 0 1 1 0 0 0 .76-.11 1 1 0 0 0 .46-.63 3 3 0 0 1 5.51-.77 1 1 0 0 0 1 .5 2 2 0 0 1 .4.01 2 2 0 0 1 0 4z" fill="#3b8686" data-original="#3B8686" class="" style="fill:#000000" data-old_color="#3b8686"/><path d="m8.84 37.36a4 4 0 1 0 -1.33-5.36 4.38 4.38 0 0 0 -.51 0 3 3 0 0 0 0 6 2.94 2.94 0 0 0 1.84-.64zm-2.84-2.36a1 1 0 0 1 1-1 1 1 0 0 1 .54.16 1 1 0 0 0 1.52-.61 2 2 0 1 1 1.94 2.45 2 2 0 0 1 -1.5-.7 1 1 0 0 0 -.76-.3h-.1a1 1 0 0 0 -.77.52 1 1 0 0 1 -1.87-.52z" fill="#3b8686" data-original="#3B8686" class="" style="fill:#000000" data-old_color="#3b8686"/><path d="m17.47 48a4 4 0 0 0 -7 0 4.38 4.38 0 0 0 -.47 0 3 3 0 0 0 0 6 2.94 2.94 0 0 0 1.84-.64 4.06 4.06 0 0 0 3.78.3 3 3 0 1 0 1.85-5.66zm-.47 4a1 1 0 0 1 -.66-.26 1 1 0 0 0 -.66-.25 1 1 0 0 0 -.56.17 2 2 0 0 1 -2.62-.36 1 1 0 0 0 -.86-.34 1 1 0 0 0 -.77.52 1 1 0 1 1 -.87-1.48 1 1 0 0 1 .54.16 1 1 0 0 0 1.52-.61 2 2 0 0 1 3.82-.2 1 1 0 0 0 1 .66h.12a1 1 0 0 1 0 2z" fill="#3b8686" data-original="#3B8686" class="" style="fill:#000000" data-old_color="#3b8686"/></g> </svg>
