<?xml version="1.0" encoding="utf-8"?>
<!DOCTYPE svg PUBLIC "-//W3C//DTD SVG 1.0//EN" "http://www.w3.org/TR/2001/REC-SVG-20010904/DTD/svg10.dtd">
<svg version="1.0" id="qrCode" xmlns="http://www.w3.org/2000/svg" xmlns:xlink="http://www.w3.org/1999/xlink" x="0px" y="0px"
	 viewBox="0 0 30 30" style="enable-background:new 0 0 30 30;" xml:space="preserve">
<g>
	<polygon points="2,2 8,2 8,0 0,0 0,8 2,8 	"/>
	<polygon points="22,0 22,2 28,2 28,8 30,8 30,0 	"/>
	<polygon points="28,28 22,28 22,30 30,30 30,22 28,22 	"/>
	<polygon points="2,22 0,22 0,30 8,30 8,28 2,28 	"/>
	<path d="M4,12h8V4H4V12z M6,6h4v4H6V6z"/>
	<path d="M4,26h8v-8H4V26z M6,20h4v4H6V20z"/>
	<path d="M26,4h-8v8h8V4z M24,10h-4V6h4V10z"/>
	<rect x="4" y="14" width="4" height="2"/>
	<path d="M10,16c2,0,4,0,6,0c0-4,0-8,0-12h-2c0,3.3,0,6.7,0,10h-4V16z"/>
	<path d="M14,20c2,0,4,0,6,0v-6h-2v4h-4V20z"/>
	<path d="M22,22h-2v2h-4v-2h-2v4c2.7,0,5.3,0,8,0V22z"/>
	<path d="M26,26c0-2.7,0-5.3,0-8v-2v-2h-4v2h2v2h-2v2h2v6H26z"/>
</g>
</svg>
