<?xml version="1.0" encoding="utf-8"?>
<!DOCTYPE svg PUBLIC "-//W3C//DTD SVG 1.0//EN" "http://www.w3.org/TR/2001/REC-SVG-20010904/DTD/svg10.dtd">
<svg version="1.0" id="trekList" xmlns="http://www.w3.org/2000/svg" xmlns:xlink="http://www.w3.org/1999/xlink" x="0px" y="0px"
	 viewBox="0 0 30 30" style="enable-background:new 0 0 30 30;" xml:space="preserve">
<path d="M29.6,26.5l-9.3-14.9c-0.2-0.3-0.5-0.5-0.8-0.5c-0.3,0-0.7,0.2-0.8,0.5L17,14.3l-3.5-5.6V8h6l-2-3l2-3h-8v6.7L0.4,26.5
	c-0.2,0.3-0.2,0.7,0,1C0.5,27.8,0.8,28,1.2,28h19.6h3h5c0.4,0,0.7-0.2,0.9-0.5S29.8,26.8,29.6,26.5z M13.5,4h2.3l-0.7,1l0.7,1h-2.3
	V4z M16.6,17.4l-1.7,1.7l-1.7-1.7c-0.4-0.4-1-0.4-1.4,0l-1.7,1.7l-1.7-1.7l4.1-6.6L16.6,17.4z M20.8,26H3l4.3-6.8l2.1,2.1
	c0.4,0.4,1,0.4,1.4,0l1.7-1.7l1.7,1.7c0.2,0.2,0.4,0.3,0.7,0.3s0.5-0.1,0.7-0.3l2.1-2.1L22,26H20.8z M24.4,26l-6.2-9.9l1.3-2.1
	L27,26H24.4z"/>
</svg>
